HIERARCHY
ROOT Hips
{
  OFFSET 112.104 102.481 24.9468
  CHANNELS 6 Xposition Yposition Zposition Zrotation Xrotation Yrotation
  JOINT RightUpLeg
  {
    OFFSET -8.9458 -8.66707 0.101652
    CHANNELS 3 Zrotation Xrotation Yrotation
    JOINT RightLeg
    {
      OFFSET 0 -44.4227 1.3727
      CHANNELS 3 Zrotation Xrotation Yrotation
      JOINT RightFoot
      {
        OFFSET 0.253549 -42.0924 -1.46059
        CHANNELS 3 Zrotation Xrotation Yrotation
        JOINT RightToes
        {
          OFFSET 0.04 -4.41509 8.4991
          CHANNELS 3 Zrotation Xrotation Yrotation
          End Site
          {
            OFFSET -0.08 -0.137448 9.77979
          }
        }
      }
    }
  }
  JOINT Spine
  {
    OFFSET 0 11.8905 0
    CHANNELS 3 Zrotation Xrotation Yrotation
    JOINT Spine1
    {
      OFFSET 0 25.6574 0.127663
      CHANNELS 3 Zrotation Xrotation Yrotation
      JOINT HEad
      {
        OFFSET 0 8.73416 0.011341
        CHANNELS 3 Zrotation Xrotation Yrotation
        End Site
        {
          OFFSET -0.29 12.7742 2.51395
        }
      }
      JOINT LeftShoulder1
      {
        OFFSET 8.99 -0.362252 -0.22
        CHANNELS 3 Zrotation Xrotation Yrotation
        JOINT LeftArm
        {
          OFFSET 10.2827 -0.00338 0.322123
          CHANNELS 3 Zrotation Xrotation Yrotation
          JOINT LeftForeArm
          {
            OFFSET 32.7669 0.099144 -1.42434
            CHANNELS 3 Zrotation Xrotation Yrotation
            JOINT LeftHand
            {
              OFFSET 27.5643 0.085362 1.02216
              CHANNELS 3 Zrotation Xrotation Yrotation
              End Site
              {
                OFFSET 16.7443 -0.6 1.50291
              }
            }
          }
        }
      }
      JOINT RightShoulder
      {
        OFFSET -8.99 -0.362252 -0.22
        CHANNELS 3 Zrotation Xrotation Yrotation
        JOINT RightArm
        {
          OFFSET -10.2827 -0.00338 0.322123
          CHANNELS 3 Zrotation Xrotation Yrotation
          JOINT RightForeArm
          {
            OFFSET -32.8971 0.099144 -1.42434
            CHANNELS 3 Zrotation Xrotation Yrotation
            JOINT RightHand
            {
              OFFSET -27.4921 0.085362 1.02216
              CHANNELS 3 Zrotation Xrotation Yrotation
              End Site
              {
                OFFSET -16.6312 -0.6 1.50291
              }
            }
          }
        }
      }
    }
  }
  JOINT LeftUpLeg
  {
    OFFSET 8.9458 -8.66707 0.101652
    CHANNELS 3 Zrotation Xrotation Yrotation
    JOINT LeftLeg
    {
      OFFSET 0 -44.4227 1.3727
      CHANNELS 3 Zrotation Xrotation Yrotation
      JOINT LeftFoot
      {
        OFFSET -0.253549 -42.0924 -1.46059
        CHANNELS 3 Zrotation Xrotation Yrotation
        JOINT LeftToes
        {
          OFFSET -0.04 -4.41509 8.4991
          CHANNELS 3 Zrotation Xrotation Yrotation
          End Site
          {
            OFFSET 0.08 -0.047448 9.77979
          }
        }
      }
    }
  }
}
MOTION
Frames:	16
Frame Time:	0.0166667
111.717 96.7019 289.077 1.28623 -9.14292 175.549 6.10345 -0.595238 8.36036 1.83671 16.562 -0.551117 4.74867 -11.4081 0.132915 -6.41338 -11.399 1.55904 4.50395 2.0035 1.50742 16.0655 -8.50807 -1.16393 -14.5205 13.5021 18.7094 -2.23633e-015 0 -0 -48.4858 -73.5464 40.9843 -2.74595 11.6906 5.59218 0.368473 9.90896 -0.00117928 1.33891 0.900186 5.82729 146.249 -53.9608 76.5746 -28.1087 1.38521 8.3721 -0.369625 9.91382 0.00119886 4.52509 -33.1089 -11.9143 -1.1359 0.335157 9.03653 -3.19757 4.67438 0.272811 -1.36317 24.9097 -6.10977 
111.528 96.4962 286.24 1.49015 -9.1685 174.86 6.05815 0.657462 7.78477 1.553 17.4671 0.580389 4.974 -10.9889 0.138294 -6.71804 -12.1675 1.48235 5.11055 1.4476 1.52181 16.1974 -8.58207 -1.15321 -15.0801 13.5386 19.4971 1.41712e-015 -9.13167e-016 -1.59028e-015 -46.9194 -72.1496 43.4512 -3.52391 11.7443 5.90164 0.368473 9.90896 -0.00117928 -0.00998317 0.843467 6.54411 147.399 -54.335 76.3373 -28.4228 1.10865 8.86841 -0.369625 9.91382 0.00119886 5.09304 -32.9002 -15.2613 -0.902446 -0.942042 13.2471 -3.17835 3.80736 0.274382 -2.4781 22.0809 -4.9704 
111.342 96.328 283.391 1.62827 -9.24912 174.339 5.96516 1.76542 7.20679 1.24317 18.459 1.69203 5.2247 -10.386 0.13463 -7.01903 -12.811 1.44749 5.46941 1.03146 1.41858 16.3576 -8.87923 -1.20589 -15.4986 13.6358 20.2772 1.51573e-015 1.98785e-016 -3.18055e-015 -45.3277 -70.798 45.9696 -4.21957 11.7881 6.17816 0.368473 9.90896 -0.00117928 -1.0427 0.814185 7.27361 148.518 -54.8533 76.3626 -28.7329 0.861165 9.28792 -0.369625 9.91382 0.00119886 5.4655 -32.7905 -17.3024 -0.828414 -1.43575 16.1644 -2.80591 4.00318 0.245709 -2.67329 19.4435 -4.22651 
111.167 96.2365 280.513 1.67183 -9.54208 174.233 5.75459 2.49548 6.63217 0.943376 19.5836 2.78773 5.53574 -9.24069 0.106771 -7.26721 -13.4839 1.34223 5.20557 0.914313 0.992951 16.6552 -9.81986 -1.43017 -15.5827 13.958 21.1086 -6.41081e-015 3.97569e-016 1.59028e-015 -43.049 -69.4207 49.3058 -4.76389 11.8083 6.39404 0.368473 9.90896 -0.00117928 -1.21341 0.86419 8.12472 149.568 -55.7851 77.2218 -29.0796 0.713122 9.42776 -0.369625 9.91382 0.00119886 5.41907 -33.1837 -15.1698 -1.56752 0.0671313 15.3702 -1.09203 8.05915 0.101047 -0.392978 17.0682 -4.43418 
110.99 96.2541 277.618 1.44973 -9.80427 174.466 5.31637 2.94978 6.01277 0.564095 21.0752 3.74457 5.90766 -7.89537 0.0647543 -7.58035 -13.2231 1.67204 4.45408 1.17724 0.387928 16.8519 -11.0348 -1.76005 -15.3575 14.2625 21.7883 6.55989e-015 3.97569e-016 -1.59028e-015 -40.6294 -68.406 52.6059 -5.03095 11.8079 6.49987 0.368473 9.90896 -0.00117928 -0.907667 0.946627 8.82143 150.709 -56.8763 78.4651 -29.353 0.565986 9.58879 -0.369625 9.91382 0.00119886 4.83665 -33.7348 -12.303 -2.68788 2.83817 12.9385 0.452615 11.8347 -0.0265579 2.55807 15.6082 -5.13693 
110.785 96.4621 274.699 0.679095 -9.81197 175.099 4.44983 3.21895 5.30779 -0.0313714 23.1366 4.58231 6.28683 -6.74731 0.0271524 -8.58757 -11.7464 2.97887 3.05866 2.10832 -0.34975 16.7749 -12.3627 -2.16607 -14.6468 14.3301 22.0498 -1.78906e-015 -1.59028e-015 -3.18055e-015 -37.8121 -68.2787 55.8672 -4.78921 11.7795 6.4044 0.368473 9.90896 -0.00117928 -0.18992 1.0397 9.00438 152.025 -57.9635 79.8359 -29.4079 0.321768 10.0804 -0.369625 9.91382 0.00119886 3.31236 -34.5298 -11.5428 -4.06432 6.95831 9.654 0.051301 11.1134 0.0244201 4.33466 16.1884 -5.94857 
110.588 96.7533 271.794 -0.344521 -9.65735 175.964 3.36253 3.10553 4.50623 -0.653159 25.9199 4.88778 6.86843 -5.27339 -0.0475786 -9.09905 -7.16212 4.97947 1.57814 3.24537 -1.13775 16.347 -13.5998 -2.64607 -13.8078 14.2819 22.1242 6.95746e-016 0 1.59028e-015 -34.9114 -68.6861 58.7378 -4.28771 11.7397 6.20577 0.368473 9.90896 -0.00117928 0.535581 1.12254 9.03226 153.528 -59.0813 81.106 -29.3701 0.0522775 10.6747 -0.369625 9.91382 0.00119886 1.23705 -35.0418 -12.0033 -5.00876 11.2212 6.90744 -0.668713 8.92046 0.100571 7.12132 17.4111 -7.37258 
110.444 97.048 268.926 -1.43436 -9.29141 176.972 2.14403 2.47213 3.63242 -0.864128 29.763 3.71394 8.04339 -2.93061 -0.204793 -8.67964 4.20716 8.58776 0.525361 4.29912 -1.87225 15.3846 -14.5542 -3.2085 -13.1448 14.1514 22.1383 -6.65929e-015 3.97569e-016 1.59028e-015 -32.1616 -69.6694 60.7252 -3.58607 11.6986 5.92691 0.368473 9.90896 -0.00117928 0.809421 1.16229 9.12465 155.357 -60.2584 81.9 -29.3328 -0.252198 11.3359 -0.369625 9.91382 0.00119886 -1.22375 -34.5591 -14.1161 -5.55243 14.2514 7.09041 -0.422169 6.83296 0.076148 14.2695 18.7645 -10.7681 
110.307 97.3455 266.13 -2.56307 -8.91608 177.928 0.884418 1.22577 2.54625 -0.895162 34.3286 2.4047 9.20428 -0.175895 -0.412987 -8.10854 16.9178 11.5457 -0.2199 5.03896 -2.56882 14.0792 -15.0302 -3.77882 -12.6606 13.9689 22.1449 -2.38542e-015 -7.95139e-016 -1.59028e-015 -30.3601 -70.774 61.5126 -3.02059 11.6685 5.70199 0.368473 9.90896 -0.00117928 0.728049 1.17211 9.33942 156.977 -61.4216 82.1236 -29.2621 -0.447138 11.7966 -0.369625 9.91382 0.00119886 -3.60194 -33.5243 -16.6267 -6.16705 16.3398 8.1299 0.0363211 4.9785 0.0318703 20.3092 18.6377 -13.1456 
110.131 97.6222 263.457 -3.62368 -8.74392 178.607 -0.364201 -0.852491 1.09927 -1.33217 39.5543 2.49149 9.74284 3.00923 -0.68885 -4.57622 28.1013 10.8396 -0.487874 4.91136 -3.21576 12.4331 -14.4609 -4.27389 -12.5384 13.8087 22.1969 -4.47266e-016 -3.97569e-016 1.59028e-015 -31.5338 -71.381 59.481 -3.14587 11.6766 5.75192 0.368473 9.90896 -0.00117928 -0.0259655 1.13602 9.96368 157.692 -62.5212 81.1506 -29.1491 -0.312485 11.6334 -0.369625 9.91382 0.00119886 -5.39366 -32.1326 -18.3101 -6.82628 17.1351 8.34504 0.356737 4.34747 0.00915196 18.7054 14.1553 -10.6196 
109.962 97.8668 260.883 -4.59604 -8.70718 179.025 -1.56758 -3.52021 -0.663286 -2.43247 44.9847 3.3339 10.0386 5.7411 -0.939703 3.1338 35.5059 6.34626 -0.70524 4.60033 -3.78171 10.8906 -13.7757 -4.71205 -12.5381 13.5724 22.4206 1.14301e-015 5.96354e-016 1.59028e-015 -33.4722 -71.8887 56.6847 -3.36479 11.6904 5.83903 0.368473 9.90896 -0.00117928 -0.669357 1.10854 10.5294 157.949 -63.4645 79.9909 -29.032 -0.089077 11.2776 -0.369625 9.91382 0.00119886 -6.75435 -30.6619 -19.68 -7.52066 17.3701 8.70751 0.636566 3.9285 -0.00378454 16.1842 8.88773 -7.41148 
109.834 98.0383 258.408 -5.46489 -8.84373 179.072 -2.72161 -6.6596 -2.98139 -4.66278 50.2271 4.84645 10.2684 6.90894 -1.05558 16.3657 32.5357 -4.46441 -1.28679 4.66251 -4.25859 9.86121 -13.8539 -5.12306 -12.4212 13.1423 23.0853 7.45443e-016 -7.95139e-016 -3.18055e-015 -33.8427 -72.5957 55.4711 -3.18667 11.6827 5.76811 0.368473 9.90896 -0.00117928 -0.306951 1.16286 10.6188 158.103 -64.1165 79.8031 -28.9457 0.0544391 11.0134 -0.369625 9.91382 0.00119886 -7.71719 -29.5353 -21.0169 -8.40911 17.7301 10.0214 0.847309 2.83927 -0.00198254 16.9367 6.36042 -6.55054 
109.734 98.2021 256.004 -6.12892 -9.04618 178.899 -3.72398 -10.0729 -5.2138 -7.7529 54.9755 6.91172 10.3081 7.21463 -1.08659 25.5769 26.3239 -13.305 -1.99685 4.92222 -4.57354 9.33613 -14.2715 -5.41406 -12.3431 12.6536 23.813 1.14301e-015 3.97569e-016 -0 -34.2156 -73.421 54.2471 -2.84704 11.6651 5.63277 0.368473 9.90896 -0.00117928 0.401419 1.22681 10.3679 158.39 -64.6436 80.2657 -28.8958 0.120676 10.8577 -0.369625 9.91382 0.00119886 -8.30386 -28.4329 -21.8368 -9.12092 17.965 11.1855 1.01258 1.68291 0.0064072 17.991 4.73886 -6.19215 
109.662 98.4444 253.64 -6.41584 -9.20609 178.601 -4.09368 -13.5521 -6.80331 -11.4915 58.7267 9.1653 10.0479 6.83388 -1.02838 26.4578 25.0773 -14.2581 -2.75911 5.48925 -4.58394 9.66433 -14.9851 -5.44192 -12.4784 12.1704 24.2564 -2.38542e-015 0 -1.59028e-015 -35.7216 -74.342 51.8921 -2.40515 11.6401 5.45645 0.368473 9.90896 -0.00117928 0.97445 1.22687 9.63687 159.273 -65.1533 81.4695 -28.8864 0.00591587 11.027 -0.369625 9.91382 0.00119886 -8.48096 -27.0874 -21.5675 -9.19668 17.9757 11.0965 1.11339 0.870447 0.0142394 17.8417 3.23958 -5.50042 
109.61 98.6614 251.326 -6.52796 -9.3621 178.233 -4.22348 -17.0945 -7.66326 -14.8945 61.7817 11.2679 9.68044 6.2334 -0.9427 24.3054 23.9853 -12.6128 -3.53339 6.0654 -4.49012 10.227 -15.7369 -5.37878 -12.5781 11.7829 24.6 2.6339e-015 0 1.59028e-015 -38.0956 -75.3392 48.5597 -1.89944 11.6078 5.25448 0.368473 9.90896 -0.00117928 1.77243 1.23952 8.83399 160.336 -65.6245 83.2458 -28.9572 -0.139465 11.2065 -0.369625 9.91382 0.00119886 -8.53809 -25.7506 -20.8187 -8.97983 18.0696 10.5432 1.2472 0.0959324 0.0235909 17.3961 2.01114 -4.83347 
109.57 98.7584 249.068 -6.60495 -9.53656 177.885 -4.2249 -20.6954 -7.23184 -16.4015 64.3696 12.509 9.43655 6.22423 -0.916876 21.8074 19.6111 -11.339 -4.24054 6.31512 -4.46874 10.4477 -16.2214 -5.36953 -12.4566 11.748 24.9569 -9.93923e-016 -1.98785e-016 -1.59028e-015 -41.4254 -76.3412 44.0362 -1.40438 11.5713 5.05648 0.368473 9.90896 -0.00117928 3.12143 1.34391 8.44269 161.324 -66.1052 85.6166 -29.1981 -0.182839 11.0933 -0.369625 9.91382 0.00119886 -8.72359 -24.6913 -20.0117 -8.67782 18.6575 10.0096 1.55388 -0.86921 0.0339466 17.0858 0.934752 -4.28459 
